<?xml version="1.0" encoding="utf-8"?>
<!-- Generator: Adobe Illustrator 16.0.0, SVG Export Plug-In . SVG Version: 6.00 Build 0)  -->
<!DOCTYPE svg PUBLIC "-//W3C//DTD SVG 1.1//EN" "http://www.w3.org/Graphics/SVG/1.1/DTD/svg11.dtd">
<svg version="1.1" id="Ebene_1" xmlns="http://www.w3.org/2000/svg" xmlns:xlink="http://www.w3.org/1999/xlink" x="0px" y="0px"
	 width="440px" height="400px" viewBox="100 100 550 400" enable-background="new 0 0 841.89 595.28" xml:space="preserve">
<g>
	<path fill-rule="evenodd" clip-rule="evenodd" fill="#FFFFFF" d="M553.23,217.149c0.658-0.298,1.316-0.597,1.975-0.896
		c0.722-0.189,1.463-0.325,2.162-0.577c8.119-2.924,16.198-5.961,24.356-8.768c5.367-1.847,10.849-3.362,16.274-5.04
		c0.687-0.212,1.348-0.508,2.021-0.766c-3.557-0.27-55.068,15.02-59.584,17.521c4.313-1.247,8.602-2.58,12.895-3.897
		c4.331-1.329,8.668-2.643,13.003-3.963c0.045,0.132,0.09,0.263,0.135,0.395c-0.604,0.289-1.199,0.603-1.815,0.862
		c-2.714,1.142-5.44,2.255-8.147,3.414c-0.46,0.197-0.847,0.567-1.27,0.854c-0.844-0.113-1.551,0.07-1.968,0.894
		c-0.533,0.095-1.065,0.19-1.599,0.285c0.023,0.099,0.046,0.197,0.07,0.295C552.236,217.559,552.733,217.354,553.23,217.149z
		 M256.02,286.15c-0.658,0.164-1.337,0.271-1.972,0.502c-11.145,4.025-22.299,8.025-33.418,12.121
		c-6.428,2.369-11.671,6.299-15.209,12.277c-3.753,6.342-4.551,13.259-3.885,20.444c0.022,0.236,0.237,0.455,0.35,0.659
		c0.858-0.007,2.446-0.389,2.422-1.07c-0.025-0.736-0.256-1.682,0.103-2.17c0.689-0.938,0.647-1.896,0.689-2.91
		c0.367-8.843,3.772-16.063,11.37-20.965c4.4-2.839,9.323-4.252,14.467-4.967c1.422-0.197,2.935-0.102,4.262-0.56
		c2.511-0.866,4.918-2.032,7.364-3.083c0.088-0.039,0.137-0.17,0.207-0.262c-0.408-0.192-0.803-0.379-1.457-0.688
		c1.306-0.562,2.343-1.008,3.496-1.503c-0.675-1.358,0.136-2.001,1.105-2.503c2.796-1.45,5.613-2.858,8.409-4.308
		c0.58-0.3,1.105-0.706,1.659-1.061c0.511-0.125,1.022-0.249,1.533-0.374c-0.04-0.109-0.08-0.219-0.121-0.328
		C256.935,285.653,256.478,285.902,256.02,286.15z M348.62,254.071c-0.654,0.165-1.329,0.272-1.958,0.506
		c-1.733,0.645-3.488,1.255-5.16,2.04c-2.688,1.262-5.788,1.667-8.049,3.832c-0.132,0.127-0.388,0.118-0.578,0.193
		c-5.344,2.125-10.692,4.239-16.026,6.388c-1.515,0.61-2.988,1.323-4.549,2.02c0.791,0.69,1.496,0.826,2.35,0.365
		c0.903-0.486,1.862-0.87,2.799-1.292c5.115-2.307,10.229-4.617,15.348-6.915c1.061-0.477,2.126-0.953,3.218-1.351
		c1.935-0.705,4.849-0.455,6.54,0.577c-8.043,2.983-15.988,5.93-24.004,8.903c0.119,0.575,0.208,1.002,0.321,1.549
		c0.705-0.257,1.277-0.467,1.851-0.676c7.66-2.791,15.342-5.522,22.963-8.415c1.89-0.717,3.504-0.635,5.311,0.133
		c4.573,1.944,8.813,4.425,12.766,7.425c0.507,0.385,1.24,0.819,1.787,0.73c1.097-0.179,2.137-0.704,3.603-1.231
		c-1.876-1.464-3.339-2.692-4.892-3.794c-1.619-1.148-3.321-2.182-4.995-3.253c-1.559-0.997-3.333-1.649-5.104-2.852
		c0.761-0.3,1.134-0.465,1.519-0.597c20.677-7.078,41.433-13.906,62.408-20.062c14.987-4.399,29.987-8.75,45.159-12.466
		c7.649-1.874,15.37-3.452,23.045-5.224c5.271-1.217,10.62-2.224,15.76-3.869c19.321-6.183,38.734-12.04,58.284-17.45
		c0.461-0.127,0.896-0.344,1.345-0.519c-0.622-0.199-1.164-0.168-1.693-0.07c-4.782,0.881-9.573,1.72-14.34,2.675
		c-7.657,1.534-15.317,3.062-22.942,4.744c-16.864,3.72-33.558,8.126-50.142,12.929c-14.013,4.058-27.998,8.211-41.938,12.512
		c-25.996,8.021-51.791,16.653-77.413,25.801c-1.996,0.712-4.287,0.292-6.581-1.26c0.78-0.339,1.477-0.597,2.129-0.939
		c0.632-0.331,1.219-0.75,1.826-1.129c0.583-0.126,1.166-0.252,1.748-0.377c-0.052-0.151-0.104-0.301-0.157-0.452
		C349.66,253.491,349.14,253.781,348.62,254.071z M230.359,384.051c-0.109,0.117-0.219,0.236-0.329,0.354
		c0.061,0.123,0.098,0.264,0.185,0.363c0.317,0.359,0.647,0.707,0.978,1.055c17.028,17.875,36.704,32.076,59.125,42.418
		c12.014,5.541,24.493,9.607,37.694,11.195c8.807,1.061,17.549,0.855,26.037-1.939c9.335-3.074,16.048-9.016,19.153-18.566
		c0.457-1.404,1.121-2.615,2.058-3.74c7.192-8.641,14.393-17.274,21.533-25.957c25.21-30.656,50.397-61.329,75.589-91.998
		c0.323-0.394,0.592-0.83,1.097-1.545c-0.53,0.256-0.713,0.316-0.864,0.422c-6.587,4.611-12.907,9.541-18.156,15.689
		c-12.729,14.909-25.513,29.773-38.107,44.795c-10.834,12.921-21.438,26.035-32.146,39.063c-0.504,0.612-1.029,1.208-1.544,1.812
		c-0.137-0.122-0.274-0.243-0.412-0.365c15.596-23.064,31.833-45.677,48.222-68.226c-2.354,2.125-4.706,4.251-7.06,6.377
		c-0.081-0.068-0.162-0.138-0.243-0.206c0.315-0.485,0.632-0.972,0.947-1.457c-7.496,6.253-38.596,41.065-39.378,43.785
		c1.416-1.39,2.822-2.788,4.252-4.164c1.481-1.426,2.975-2.841,4.484-4.237c1.405-1.301,2.807-2.609,4.448-3.66
		c-8.221,11.068-16.255,22.218-23.319,34.033c-0.04,0.066-0.251,0.029-0.422,0.045c-0.514-0.641,0.006-1.145,0.287-1.63
		c1.233-2.136,2.386-4.33,3.783-6.354c2.49-3.609,5.138-7.107,7.711-10.66c0.282-0.389,0.501-0.824,0.75-1.238
		c-5.476,5.166-10.208,10.929-14.875,16.675c-0.512-0.093-0.92-0.165-1.498-0.27c0.181,1.36,0.441,2.507,0.466,3.657
		c0.075,3.484,0.144,6.972,0.063,10.453c-0.258,11.072-6.474,19.666-16.855,23.494c-5.816,2.145-11.847,2.838-17.99,2.693
		c-9.956-0.236-19.575-2.34-28.987-5.471c-3.9-1.297-7.715-2.867-11.653-4.031c-3.307-0.979-6.478-2.201-9.535-3.768
		c-1.707-0.875-3.405-1.779-5.166-2.535c-5.953-2.555-11.413-5.925-16.696-9.651c-5.373-3.789-10.909-7.348-16.342-11.053
		c-1.467-1-2.921-2.061-4.206-3.278c-2.883-2.734-5.624-5.617-8.486-8.374C233.493,386.646,231.896,385.381,230.359,384.051z
		 M371.283,278.899c-0.906,0.479-1.444,0.771-1.989,1.049c-10.006,5.116-20.054,10.151-30.007,15.366
		c-10.807,5.661-21.426,11.667-31.776,18.137c-0.868,0.543-1.698,1.148-2.521,1.758c-1.355,1.004-2.683,2.045-4.035,3.053
		c-0.628,0.467-1.287,0.891-2.106,1.455c0.497,0.219,0.8,0.477,0.969,0.406c1.132-0.463,1.964,0.146,2.827,0.691
		c1.796,1.135,3.6,2.259,5.389,3.405c2.688,1.722,2.684,1.729,5.406,0.058c0.171-0.105,0.309-0.264,0.664-0.576
		c-3.216-2.111-6.333-4.158-9.75-6.401c21.903-14.009,44.78-25.567,68.06-36.525c2.196,2.803,3.238,5.944,4.101,9.293
		c0.838-0.517,1.393-0.918,1.997-1.221c1.055-0.528,1.317-1.337,0.914-2.382c-0.591-1.529-1.198-3.056-1.849-4.562
		c-0.396-0.916-0.886-1.791-1.385-2.785c0.896-0.43,1.619-0.804,2.364-1.129c8.033-3.518,16.049-7.075,24.109-10.531
		c12.723-5.455,25.577-10.576,38.646-15.149c4.008-1.403,8.112-2.603,11.976-4.334c24.655-11.044,49.75-20.958,75.329-29.648
		c26.023-8.841,52.322-16.728,79.141-22.815c0.467-0.106,0.903-0.352,1.354-0.532c-3.694-1.001-7.264,0.092-10.862,0.026
		c0.922-0.297,1.852-0.493,2.791-0.634c1.761-0.264,3.527-0.492,5.291-0.741c0.555-0.078,1.193-0.171,1.12-0.908
		c-0.071-0.711-0.693-0.747-1.264-0.697c-0.34,0.029-0.673,0.127-1.012,0.172c-2.648,0.348-5.3,0.673-7.946,1.039
		c-1.288,0.178-2.592,0.333-3.846,0.663c-7.948,2.088-15.886,4.216-23.822,6.348c-0.932,0.25-1.836,0.606-2.843,0.943
		c0.291,0.21,0.425,0.307,0.595,0.43c-1.795,0.492-3.506,0.942-5.206,1.428c-12.774,3.653-25.635,7.031-38.301,11.029
		c-28.815,9.096-57.199,19.439-85.376,30.353c-22.299,8.637-44.499,17.511-66.428,27.056c-0.489,0.213-1.012,0.352-1.512,0.522
		c-0.738-0.639-1.403-1.214-2.113-1.829c-1.221,0.454-2.395,0.889-3.751,1.393c0.76,0.833,1.3,1.427,1.961,2.152
		c-0.647,0.336-1.169,0.637-1.715,0.885c-7.051,3.198-14.134,6.327-21.152,9.595c-15.972,7.438-31.72,15.311-46.881,24.313
		c-0.598,0.355-1.745,0.654-1.297,1.525c0.544,1.057,1.421,0.172,2.068-0.191c3.345-1.882,6.646-3.842,10.003-5.699
		c19.028-10.526,38.733-19.653,58.655-28.329c0.557-0.243,1.137-0.429,1.852-0.696C369.14,276.343,370.133,277.528,371.283,278.899z
		 M350.884,247.604c0.042,0.112,0.083,0.224,0.125,0.336c0.638-0.176,1.283-0.33,1.911-0.533
		c16.678-5.396,33.345-10.825,50.037-16.178c4.167-1.336,8.455-2.299,12.612-3.662c11-3.605,21.9-7.519,32.944-10.976
		c20.91-6.546,41.893-12.858,62.844-19.272c0.651-0.199,1.496-0.259,1.889-0.703c0.777-0.879,1.803-0.978,2.762-1.215
		c2.589-0.642,5.194-1.234,7.815-1.724c6.864-1.282,13.74-2.497,20.61-3.746c0.761-0.138,1.962-0.013,1.748-1.167
		c-0.183-0.983-1.273-0.528-1.947-0.414c-4.861,0.822-9.743,1.556-14.563,2.583c-9.904,2.11-19.807,4.248-29.649,6.621
		c-20.578,4.962-40.888,10.878-61.028,17.401c-29.148,9.441-57.88,19.998-86.167,31.771
		C352.172,247,351.532,247.311,350.884,247.604z M442.686,314.986c0.081,0.057,0.162,0.112,0.243,0.168
		c0.118-0.068,0.246-0.123,0.351-0.208c10.66-8.672,22.071-16.255,33.811-23.366c0.929-0.563,1.781-1.276,2.595-2.003
		c8.492-7.578,16.875-15.279,25.468-22.74c17.563-15.249,35.717-29.747,55.111-42.634c0.332-0.221,0.63-0.495,0.943-0.745
		c-1.839,0.337-3.576,0.893-5.258,1.582c-2.338,0.959-4.841,1.708-6.913,3.088c-8.101,5.394-16.202,10.805-24.045,16.562
		c-28.735,21.095-55.362,44.683-81.227,69.159C443.386,314.209,443.045,314.607,442.686,314.986z M370.33,395.011
		c1.422-1.825,2.721-3.565,4.102-5.237c0.741-0.898,1.025-1.854,1.064-3.007c0.996-29.183,2.023-58.362,3.022-87.545
		c0.047-1.388,0.246-2.679,0.82-3.972c0.714-1.61,1.076-3.334,0.532-5.287c-0.717,0.443-1.261,0.854-1.863,1.137
		c-1.908,0.9-2.467,2.476-2.341,4.436c0.011,0.167-0.023,0.462-0.111,0.492c-1.103,0.397-0.767,1.346-0.793,2.107
		c-0.582,16.371-1.15,32.742-1.712,49.114c-0.467,13.632-0.92,27.266-1.388,40.897c-0.019,0.564-0.129,1.127-0.196,1.689
		c-1.478-2.07-1.963-4.52-3.596-6.852c-0.22,0.785-0.423,1.152-0.407,1.512c0.064,1.432,0.259,2.8,0.849,4.18
		C369.155,390.648,369.639,392.775,370.33,395.011z M424.9,216.105c-0.033-0.083-0.066-0.165-0.1-0.247
		c-2.225,0.369-4.48,0.61-6.663,1.148c-1.646,0.406-3.197,1.199-4.797,1.804c-1.921,0.726-3.798,1.762-5.785,2.067
		c-2.556,0.392-4.875,1.316-7.234,2.206c-7.561,2.851-15.104,5.747-22.67,8.583c-5.834,2.188-11.689,4.321-17.542,6.459
		c-0.83,0.303-1.699,0.504-2.552,0.743c-1.112,0.31-2.27,0.501-3.333,0.931c-9.208,3.724-18.391,7.507-27.602,11.222
		c-1.32,0.533-2.749,0.8-4.132,1.173c-1.113,0.3-2.297,0.426-3.339,0.882c-13.179,5.763-26.338,11.572-39.501,17.373
		c-0.422,0.186-0.827,0.412-1.24,0.619c0.555,0.007,1.095-0.062,1.583-0.258c47.579-19.198,95.547-37.363,143.987-54.276
		C424.299,216.423,424.595,216.25,424.9,216.105z M454.273,266.8c-6.205,1.601-45.659,26.897-49.09,31.26
		c0.602-0.239,1.179-0.538,1.723-0.887c6.979-4.475,13.953-8.959,20.932-13.435c2.594-1.664,5.222-3.277,7.79-4.979
		c3.422-2.267,6.763-4.657,10.211-6.883C448.595,270.098,451.458,268.486,454.273,266.8z M287.252,312.376
		c2.417,1.254,4.705,2.458,7.013,3.62c0.342,0.173,0.832,0.311,1.164,0.199c1.244-0.42,2.451-0.95,4.137-1.625
		c-2.996-1.584-5.504-2.936-8.036-4.242c-2.649-1.368-2.658-1.35-3.893,1.269C287.55,311.779,287.458,311.959,287.252,312.376z
		 M397.407,301.867c-0.557,0.262-0.749,0.322-0.908,0.432c-4.576,3.141-9.15,6.285-13.717,9.439
		c-0.332,0.229-0.654,0.511-0.879,0.838c-0.114,0.166-0.092,0.555,0.032,0.721c0.133,0.178,0.464,0.305,0.697,0.288
		c0.25-0.019,0.502-0.206,0.726-0.36C388.21,309.889,393.117,306.62,397.407,301.867z M359.84,375.508
		c1.368-3.477,0.491-7.408-1.963-8.959c-0.381,1.045-0.789,2.057-1.108,3.095c-0.109,0.353-0.138,0.86,0.039,1.151
		C357.755,372.357,358.778,373.875,359.84,375.508z M566.98,217.296c5.102-1.126,12.317-4.23,15.031-6.573
		C576.744,212.879,571.487,213.955,566.98,217.296z M313.72,264.396c4.674-1.814,9.347-3.629,14.021-5.443
		c-0.052-0.135-0.105-0.27-0.157-0.405C322.841,260.183,318.02,261.617,313.72,264.396z M234.923,287.921
		c0.088,0.11,0.176,0.22,0.263,0.329c3.706-1.545,7.411-3.091,11.117-4.637C242.204,284.297,238.585,286.164,234.923,287.921z
		 M336.15,346.516c0.619,0.516,0.885,0.737,1.265,1.055c0.167-0.502,0.281-0.842,0.465-1.396
		C337.299,346.289,336.949,346.357,336.15,346.516z M284.469,275.54c0.048,0.099,0.096,0.198,0.144,0.297
		c0.329-0.159,0.657-0.319,0.986-0.478c-0.027-0.07-0.054-0.141-0.081-0.212C285.168,275.277,284.818,275.409,284.469,275.54z
		 M383.98,378.297c-0.082-0.085-0.164-0.171-0.245-0.256c-0.228,0.295-0.456,0.592-0.685,0.887c0.063,0.055,0.125,0.109,0.188,0.164
		C383.486,378.826,383.733,378.563,383.98,378.297z M366.345,379.754c-0.152,0.196-0.327,0.322-0.335,0.458
		c-0.009,0.154,0.129,0.317,0.204,0.478c0.16-0.137,0.373-0.248,0.458-0.422C366.71,380.188,366.5,379.986,366.345,379.754z"/>
	<path fill-rule="evenodd" clip-rule="evenodd" d="M230.359,384.051c1.536,1.33,3.133,2.596,4.595,4.003
		c2.862,2.757,5.603,5.64,8.486,8.374c1.284,1.218,2.739,2.278,4.206,3.278c5.433,3.705,10.969,7.264,16.342,11.053
		c5.283,3.727,10.744,7.097,16.696,9.651c1.761,0.756,3.459,1.66,5.166,2.535c3.057,1.566,6.228,2.789,9.535,3.768
		c3.938,1.164,7.753,2.734,11.653,4.031c9.412,3.131,19.032,5.234,28.987,5.471c6.143,0.145,12.174-0.549,17.99-2.693
		c10.382-3.828,16.597-12.422,16.855-23.494c0.081-3.481,0.013-6.969-0.063-10.453c-0.025-1.15-0.285-2.297-0.466-3.657
		c0.578,0.104,0.986,0.177,1.498,0.27c4.667-5.746,9.398-11.509,14.875-16.675c-0.249,0.414-0.468,0.85-0.75,1.238
		c-2.573,3.553-5.222,7.051-7.711,10.66c-1.397,2.024-2.55,4.219-3.783,6.354c-0.28,0.485-0.8,0.989-0.287,1.63
		c0.171-0.016,0.383,0.021,0.422-0.045c7.064-11.815,15.098-22.965,23.319-34.033c-1.642,1.051-3.043,2.359-4.448,3.66
		c-1.51,1.396-3.003,2.812-4.484,4.237c-1.43,1.376-2.836,2.774-4.253,4.163c0.783-2.719,31.883-37.531,39.379-43.784
		c-0.315,0.485-0.632,0.972-0.947,1.457c0.081,0.068,0.162,0.138,0.243,0.206c2.354-2.126,4.706-4.252,7.06-6.377
		c-16.389,22.549-32.626,45.161-48.222,68.226c0.137,0.122,0.274,0.243,0.412,0.365c0.515-0.604,1.04-1.199,1.544-1.812
		c10.707-13.027,21.312-26.142,32.146-39.063c12.595-15.021,25.378-29.886,38.107-44.795c5.249-6.148,11.569-11.078,18.156-15.689
		c0.151-0.105,0.334-0.166,0.864-0.422c-0.505,0.715-0.773,1.151-1.097,1.545c-25.191,30.669-50.379,61.342-75.589,91.998
		c-7.141,8.683-14.341,17.316-21.533,25.957c-0.937,1.125-1.601,2.336-2.058,3.74c-3.105,9.551-9.818,15.492-19.153,18.566
		c-8.488,2.795-17.23,3-26.037,1.939c-13.201-1.588-25.68-5.654-37.694-11.195c-22.421-10.342-42.098-24.543-59.125-42.418
		c-0.331-0.348-0.661-0.695-0.978-1.055c-0.087-0.1-0.125-0.24-0.185-0.363C230.14,384.287,230.25,384.168,230.359,384.051z
		 M399.543,363.482c-0.087-0.062-0.175-0.123-0.262-0.185c-0.278,0.39-0.556,0.779-0.834,1.169c0.081,0.057,0.162,0.113,0.244,0.172
		C398.976,364.253,399.259,363.867,399.543,363.482z"/>
	<path fill-rule="evenodd" clip-rule="evenodd" d="M371.283,278.899c-1.149-1.371-2.143-2.556-3.164-3.774
		c-0.715,0.267-1.295,0.454-1.852,0.696c-19.922,8.676-39.627,17.803-58.655,28.329c-3.357,1.857-6.659,3.817-10.003,5.699
		c-0.647,0.363-1.524,1.248-2.068,0.191c-0.448-0.871,0.699-1.17,1.297-1.525c15.161-9.002,30.91-16.875,46.881-24.313
		c7.018-3.268,14.102-6.396,21.152-9.595c0.546-0.248,1.068-0.549,1.715-0.885c-0.661-0.725-1.201-1.318-1.961-2.152
		c1.356-0.503,2.53-0.939,3.751-1.393c0.71,0.615,1.375,1.19,2.113,1.829c0.5-0.171,1.023-0.31,1.512-0.522
		c21.929-9.544,44.129-18.418,66.428-27.056c28.177-10.914,56.561-21.257,85.376-30.353c12.666-3.998,25.526-7.375,38.301-11.029
		c1.7-0.486,3.411-0.937,5.206-1.428c-0.17-0.123-0.304-0.22-0.595-0.43c1.007-0.337,1.911-0.692,2.843-0.943
		c7.937-2.132,15.874-4.26,23.822-6.348c1.254-0.329,2.558-0.484,3.846-0.663c2.646-0.366,5.298-0.691,7.946-1.039
		c0.339-0.044,0.672-0.143,1.012-0.172c0.57-0.049,1.192-0.014,1.264,0.697c0.073,0.737-0.565,0.83-1.12,0.908
		c-1.764,0.249-3.53,0.477-5.291,0.741c-0.939,0.141-1.869,0.337-2.791,0.634c3.599,0.065,7.168-1.027,10.862-0.026
		c-0.45,0.18-0.887,0.425-1.354,0.532c-26.818,6.088-53.117,13.975-79.141,22.815c-25.579,8.69-50.674,18.604-75.329,29.648
		c-3.863,1.731-7.968,2.931-11.976,4.334c-13.069,4.574-25.924,9.695-38.646,15.149c-8.06,3.456-16.076,7.013-24.109,10.531
		c-0.745,0.326-1.468,0.7-2.364,1.129c0.499,0.994,0.99,1.869,1.385,2.785c0.651,1.506,1.257,3.033,1.849,4.562
		c0.403,1.045,0.141,1.854-0.914,2.382c-0.604,0.303-1.159,0.704-1.997,1.221c-0.863-3.349-1.905-6.49-4.101-9.293
		c-23.28,10.958-46.156,22.517-68.06,36.525c3.417,2.243,6.534,4.29,9.75,6.401c-0.355,0.313-0.492,0.471-0.664,0.576
		c-2.722,1.672-2.718,1.664-5.406-0.058c-1.789-1.146-3.592-2.271-5.389-3.405c-0.863-0.545-1.695-1.154-2.827-0.691
		c-0.169,0.07-0.472-0.188-0.969-0.406c0.819-0.564,1.478-0.988,2.106-1.455c1.353-1.008,2.68-2.049,4.035-3.053
		c0.823-0.609,1.653-1.215,2.521-1.758c10.35-6.47,20.969-12.476,31.776-18.137c9.954-5.215,20.001-10.25,30.007-15.366
		C369.838,279.67,370.376,279.378,371.283,278.899z M374.782,277.21c22.757-10.845,45.444-21.392,68.489-31.162
		c-24.067,8.312-47.85,17.338-71.42,27.437C372.886,274.8,373.766,275.918,374.782,277.21z"/>
	<path fill-rule="evenodd" clip-rule="evenodd" d="M348.587,254.029c-0.606,0.38-1.193,0.799-1.825,1.13
		c-0.652,0.342-1.349,0.6-2.129,0.939c2.294,1.552,4.585,1.973,6.581,1.26c25.622-9.148,51.417-17.781,77.413-25.801
		c13.939-4.301,27.925-8.455,41.938-12.512c16.584-4.803,33.277-9.209,50.142-12.929c7.625-1.682,15.285-3.21,22.942-4.744
		c4.767-0.955,9.558-1.794,14.34-2.675c0.529-0.098,1.071-0.129,1.693,0.07c-0.448,0.175-0.884,0.392-1.345,0.519
		c-19.55,5.411-38.963,11.268-58.284,17.45c-5.14,1.645-10.488,2.651-15.76,3.869c-7.675,1.772-15.396,3.351-23.045,5.224
		c-15.172,3.717-30.172,8.067-45.159,12.466c-20.976,6.156-41.731,12.984-62.408,20.062c-0.384,0.132-0.758,0.297-1.519,0.597
		c1.771,1.202,3.546,1.855,5.104,2.852c1.674,1.071,3.375,2.104,4.995,3.253c1.553,1.102,3.016,2.33,4.892,3.794
		c-1.466,0.527-2.506,1.052-3.603,1.231c-0.547,0.089-1.28-0.345-1.787-0.73c-3.954-3-8.193-5.481-12.766-7.425
		c-1.807-0.768-3.421-0.85-5.311-0.133c-7.622,2.892-15.304,5.624-22.963,8.415c-0.574,0.209-1.146,0.418-1.851,0.676
		c-0.113-0.546-0.202-0.974-0.321-1.549c8.016-2.973,15.96-5.92,24.004-8.903c-1.691-1.031-4.605-1.282-6.54-0.577
		c-1.092,0.398-2.157,0.874-3.218,1.351c-5.119,2.298-10.233,4.608-15.348,6.915c-0.937,0.422-1.896,0.806-2.799,1.292
		c-0.854,0.46-1.56,0.325-2.35-0.365c1.562-0.697,3.035-1.41,4.549-2.02c5.334-2.149,10.683-4.263,16.026-6.388
		c0.19-0.075,0.446-0.066,0.578-0.193c2.261-2.165,5.361-2.57,8.049-3.832c1.671-0.784,3.426-1.395,5.16-2.04
		c0.628-0.234,1.304-0.341,1.958-0.506L348.587,254.029z"/>
	<path fill-rule="evenodd" clip-rule="evenodd" d="M350.884,247.604c0.647-0.293,1.288-0.604,1.943-0.877
		c28.286-11.773,57.018-22.33,86.167-31.771c20.141-6.523,40.45-12.439,61.028-17.401c9.843-2.374,19.745-4.511,29.649-6.621
		c4.819-1.027,9.701-1.761,14.563-2.583c0.674-0.114,1.765-0.569,1.947,0.414c0.214,1.155-0.987,1.029-1.748,1.167
		c-6.87,1.249-13.746,2.463-20.61,3.746c-2.621,0.489-5.227,1.082-7.815,1.724c-0.959,0.238-1.984,0.336-2.762,1.215
		c-0.393,0.444-1.237,0.504-1.889,0.703c-20.951,6.414-41.934,12.726-62.844,19.272c-11.044,3.458-21.944,7.371-32.944,10.976
		c-4.157,1.362-8.445,2.325-12.612,3.662c-16.691,5.353-33.359,10.782-50.037,16.178c-0.628,0.203-1.273,0.356-1.911,0.533
		C350.968,247.828,350.926,247.716,350.884,247.604z"/>
	<path fill-rule="evenodd" clip-rule="evenodd" d="M442.686,314.986c0.359-0.379,0.7-0.777,1.079-1.137
		c25.864-24.476,52.491-48.064,81.227-69.159c7.843-5.757,15.944-11.168,24.045-16.562c2.072-1.38,4.575-2.129,6.913-3.088
		c1.682-0.689,3.419-1.245,5.258-1.582c-0.313,0.25-0.611,0.524-0.943,0.745c-19.395,12.888-37.549,27.385-55.111,42.634
		c-8.593,7.46-16.976,15.162-25.468,22.74c-0.813,0.727-1.666,1.44-2.595,2.003c-11.739,7.111-23.15,14.694-33.811,23.366
		c-0.104,0.085-0.232,0.14-0.351,0.208C442.848,315.099,442.767,315.043,442.686,314.986z"/>
	<path fill-rule="evenodd" clip-rule="evenodd" d="M370.33,395.011c-0.691-2.235-1.175-4.362-2.019-6.335
		c-0.59-1.38-0.785-2.748-0.849-4.18c-0.016-0.359,0.187-0.727,0.407-1.512c1.632,2.332,2.118,4.781,3.596,6.852
		c0.067-0.563,0.177-1.125,0.196-1.689c0.468-13.632,0.921-27.266,1.388-40.897c0.562-16.372,1.13-32.743,1.712-49.114
		c0.027-0.762,0.915-2.433,0.904-2.6c-0.125-1.96,0.433-3.535,2.341-4.436c0.602-0.283,1.146-0.693,1.863-1.137
		c0.544,1.953,0.182,3.677-0.532,5.287c-0.574,1.293-0.772,2.584-0.82,3.972c-0.999,29.183-2.026,58.362-3.022,87.545
		c-0.039,1.153-0.323,2.108-1.064,3.007C373.051,391.445,371.752,393.186,370.33,395.011z"/>
	<path fill-rule="evenodd" clip-rule="evenodd" d="M255.977,286.104c-0.551,0.357-1.076,0.764-1.656,1.063
		c-2.796,1.449-5.613,2.857-8.409,4.308c-0.969,0.502-1.78,1.145-1.105,2.503c-1.152,0.495-2.189,0.941-3.496,1.503
		c0.654,0.309,1.048,0.495,1.457,0.688c-0.07,0.092-0.119,0.223-0.207,0.262c-2.446,1.051-4.854,2.217-7.364,3.083
		c-1.327,0.458-2.839,0.362-4.262,0.56c-5.144,0.715-10.067,2.128-14.467,4.967c-7.597,4.902-11.002,12.122-11.37,20.965
		c-0.042,1.015-0.817,4.344-0.792,5.08c0.024,0.682-1.564,1.063-2.422,1.07c-0.113-0.204-0.328-0.423-0.35-0.659
		c-0.666-7.186,0.132-14.103,3.885-20.444c3.539-5.979,8.782-9.908,15.209-12.277c11.119-4.096,22.273-8.096,33.418-12.121
		c0.634-0.23,1.313-0.338,1.972-0.502L255.977,286.104z"/>
	<path fill-rule="evenodd" clip-rule="evenodd" d="M424.9,216.105c-0.306,0.144-0.602,0.318-0.919,0.429
		c-48.44,16.913-96.408,35.078-143.987,54.276c-0.488,0.197-1.027,0.265-1.583,0.258c0.413-0.207,0.818-0.433,1.24-0.619
		c13.163-5.801,26.322-11.609,39.501-17.373c1.042-0.456,2.226-0.582,3.339-0.882c1.383-0.373,2.812-0.641,4.132-1.173
		c9.211-3.715,18.394-7.499,27.602-11.222c1.063-0.43,2.221-0.621,3.333-0.931c0.853-0.238,1.722-0.439,2.552-0.743
		c5.853-2.138,11.708-4.271,17.542-6.459c7.565-2.837,15.109-5.732,22.67-8.583c2.359-0.89,4.679-1.814,7.234-2.206
		c1.987-0.305,3.864-1.341,5.785-2.067c1.6-0.604,3.15-1.398,4.797-1.804c2.183-0.538,4.438-0.78,6.663-1.148
		C424.834,215.94,424.867,216.023,424.9,216.105z"/>
	<path fill-rule="evenodd" clip-rule="evenodd" d="M555.237,216.292c0.421-0.29,0.808-0.66,1.268-0.856
		c2.707-1.159,5.434-2.271,8.147-3.414c0.616-0.259,1.211-0.573,1.815-0.862c-0.045-0.132-0.09-0.263-0.135-0.395
		c-4.335,1.32-8.672,2.634-13.003,3.963c-4.293,1.317-8.581,2.65-12.895,3.897c4.516-2.502,56.027-17.792,59.584-17.521
		c-0.674,0.257-1.335,0.553-2.021,0.766c-5.426,1.677-10.907,3.193-16.274,5.04c-8.158,2.807-16.237,5.844-24.356,8.768
		c-0.699,0.252-1.44,0.387-2.163,0.575C555.203,216.251,555.237,216.292,555.237,216.292z"/>
	<path fill-rule="evenodd" clip-rule="evenodd" d="M454.273,266.8c-2.815,1.686-5.679,3.298-8.435,5.077
		c-3.448,2.226-6.789,4.616-10.211,6.883c-2.568,1.702-5.196,3.315-7.79,4.979c-6.979,4.476-13.952,8.96-20.932,13.435
		c-0.544,0.349-1.121,0.647-1.723,0.887C408.614,293.697,448.068,268.401,454.273,266.8z"/>
	<path fill-rule="evenodd" clip-rule="evenodd" d="M287.252,312.376c0.206-0.417,0.298-0.597,0.384-0.779
		c1.235-2.618,1.244-2.637,3.893-1.269c2.532,1.307,5.041,2.658,8.036,4.242c-1.687,0.675-2.893,1.205-4.137,1.625
		c-0.332,0.111-0.821-0.026-1.164-0.199C291.957,314.834,289.668,313.63,287.252,312.376z"/>
	<path fill-rule="evenodd" clip-rule="evenodd" d="M397.407,301.867c-4.29,4.753-9.197,8.021-14.05,11.357
		c-0.224,0.154-0.476,0.342-0.726,0.36c-0.233,0.017-0.564-0.11-0.697-0.288c-0.124-0.166-0.146-0.555-0.032-0.721
		c0.226-0.327,0.548-0.609,0.879-0.838c4.567-3.154,9.141-6.299,13.717-9.439C396.658,302.189,396.851,302.129,397.407,301.867z"/>
	<path fill-rule="evenodd" clip-rule="evenodd" d="M566.98,217.296c4.507-3.341,9.764-4.417,15.031-6.573
		C579.298,213.065,572.082,216.169,566.98,217.296z"/>
	<path fill-rule="evenodd" clip-rule="evenodd" d="M313.72,264.396c4.3-2.778,9.121-4.212,13.864-5.848
		c0.052,0.135,0.105,0.27,0.157,0.405C323.067,260.767,318.394,262.581,313.72,264.396z"/>
	<path fill-rule="evenodd" clip-rule="evenodd" d="M234.923,287.921c3.663-1.757,7.281-3.624,11.38-4.308
		c-3.706,1.546-7.411,3.092-11.117,4.637C235.099,288.141,235.011,288.031,234.923,287.921z"/>
	<path fill-rule="evenodd" clip-rule="evenodd" d="M336.15,346.516c0.799-0.158,1.149-0.227,1.729-0.341
		c-0.184,0.554-0.297,0.894-0.465,1.396C337.035,347.253,336.769,347.031,336.15,346.516z"/>
	<path fill-rule="evenodd" clip-rule="evenodd" d="M553.278,217.193c0.406-0.833,1.113-1.017,1.958-0.902
		c0.001,0.001-0.033-0.04-0.032-0.038c-0.657,0.3-1.315,0.599-1.974,0.897L553.278,217.193z"/>
	<path fill-rule="evenodd" clip-rule="evenodd" d="M553.23,217.149c-0.497,0.205-0.994,0.41-1.491,0.615
		c-0.024-0.098-0.047-0.197-0.07-0.295c0.533-0.095,1.065-0.19,1.604-0.28C553.278,217.193,553.23,217.149,553.23,217.149z"/>
	<path fill-rule="evenodd" clip-rule="evenodd" d="M348.62,254.071c0.52-0.29,1.04-0.58,1.56-0.869
		c0.052,0.15,0.104,0.301,0.157,0.452c-0.583,0.125-1.166,0.251-1.749,0.376C348.587,254.029,348.62,254.071,348.62,254.071z"/>
	<path fill-rule="evenodd" clip-rule="evenodd" d="M284.469,275.54c0.35-0.131,0.699-0.262,1.049-0.393
		c0.027,0.071,0.054,0.142,0.081,0.212c-0.329,0.159-0.658,0.319-0.986,0.478C284.564,275.737,284.517,275.639,284.469,275.54z"/>
	<path fill-rule="evenodd" clip-rule="evenodd" d="M256.02,286.15c0.458-0.248,0.916-0.497,1.373-0.746
		c0.041,0.109,0.081,0.219,0.121,0.328c-0.511,0.125-1.022,0.249-1.535,0.373C255.977,286.104,256.02,286.15,256.02,286.15z"/>
	<path fill-rule="evenodd" clip-rule="evenodd" d="M383.98,378.297c-0.247,0.266-0.494,0.529-0.741,0.795
		c-0.063-0.055-0.126-0.109-0.188-0.164c0.229-0.295,0.457-0.592,0.685-0.887C383.817,378.126,383.899,378.212,383.98,378.297z"/>
	<path fill-rule="evenodd" clip-rule="evenodd" d="M366.345,379.754c0.154,0.232,0.365,0.434,0.326,0.514
		c-0.085,0.174-0.297,0.285-0.458,0.422c-0.074-0.16-0.213-0.323-0.204-0.478C366.019,380.076,366.193,379.95,366.345,379.754z"/>
	<path fill-rule="evenodd" clip-rule="evenodd" fill="#FFFFFF" d="M399.543,363.482c-0.284,0.385-0.567,0.771-0.852,1.156
		c-0.082-0.059-0.163-0.115-0.244-0.172c0.278-0.39,0.556-0.779,0.834-1.169C399.368,363.359,399.456,363.421,399.543,363.482z"/>
	<path fill-rule="evenodd" clip-rule="evenodd" fill="#FFFFFF" d="M374.782,277.21c-1.016-1.292-1.896-2.41-2.931-3.725
		c23.57-10.099,47.353-19.125,71.42-27.437C420.227,255.818,397.539,266.365,374.782,277.21z"/>
</g>
<g opacity="0.2">
	<g>
		<path d="M239.915,291.105c-0.078,0-0.27-14.989-0.575-14.989C239.417,276.116,239.609,291.105,239.915,291.105L239.915,291.105z"
			/>
	</g>
</g>
<g>
	<path d="M391.902,398.631c0,0,1.161,0.624,3.193,1.715c1.016,0.546,2.25,1.208,3.665,1.968c0.708,0.38,1.46,0.784,2.254,1.211
		c0.785,0.453,1.61,0.931,2.471,1.428c1.72,0.998,3.583,2.079,5.554,3.223c1.979,1.128,3.976,2.455,6.089,3.752
		c2.101,1.316,4.288,2.648,6.428,4.13c2.158,1.453,4.35,2.929,6.543,4.404c2.143,1.546,4.285,3.091,6.395,4.612
		c2.129,1.49,4.123,3.097,6.088,4.602c1.943,1.532,3.885,2.933,5.611,4.405c1.746,1.445,3.398,2.813,4.922,4.073
		c0.76,0.633,1.488,1.239,2.182,1.816c0.676,0.598,1.314,1.164,1.918,1.697c1.203,1.064,2.252,1.993,3.115,2.758
		c1.727,1.528,2.715,2.401,2.715,2.401s-1.018-0.838-2.799-2.304c-0.891-0.733-1.971-1.623-3.211-2.644
		c-0.619-0.511-1.277-1.053-1.973-1.625c-0.713-0.552-1.461-1.132-2.242-1.736c-1.566-1.204-3.262-2.509-5.055-3.889
		c-1.773-1.406-3.76-2.735-5.75-4.193c-2.012-1.429-4.051-2.957-6.227-4.366c-2.152-1.438-4.34-2.9-6.525-4.362
		c-2.232-1.391-4.465-2.78-6.662-4.148c-2.178-1.396-4.399-2.643-6.532-3.876c-2.143-1.212-4.174-2.462-6.17-3.506
		c-1.987-1.061-3.866-2.063-5.6-2.988c-0.867-0.461-1.699-0.903-2.489-1.323c-0.808-0.398-1.575-0.775-2.296-1.13
		c-1.441-0.709-2.698-1.327-3.732-1.837c-2.069-1.018-3.252-1.6-3.252-1.6L391.902,398.631z"/>
</g>
<g>
	<path d="M153.454,366.376c0,0,3.57-0.472,8.924-1.179c1.339-0.177,2.789-0.368,4.323-0.571c0.768-0.099,1.556-0.201,2.362-0.306
		c0.816-0.062,1.65-0.125,2.499-0.189c3.386-0.255,6.997-0.527,10.608-0.8c3.609-0.069,7.218-0.139,10.601-0.204
		c1.69-0.038,3.323-0.065,4.871-0.021c1.548,0.022,3.011,0.044,4.362,0.063c5.401,0.08,9.002,0.133,9.002,0.133
		s-3.598,0.135-8.995,0.336c-1.349,0.051-2.81,0.105-4.355,0.163c-1.546,0.037-3.173,0.148-4.854,0.275
		c-3.359,0.239-6.942,0.495-10.525,0.751c-3.551,0.454-7.103,0.909-10.433,1.335c-0.831,0.106-1.647,0.211-2.447,0.313
		c-0.798,0.146-1.58,0.289-2.341,0.429c-1.521,0.282-2.96,0.549-4.288,0.795c-5.312,0.985-8.852,1.643-8.852,1.643L153.454,366.376z
		"/>
</g>
<g>
	<path d="M389.442,404.122c0,0,1.161,0.624,3.193,1.715c1.016,0.546,2.25,1.208,3.665,1.968c0.708,0.38,1.46,0.784,2.254,1.211
		c0.785,0.453,1.61,0.931,2.471,1.428c1.72,0.998,3.583,2.079,5.554,3.223c1.979,1.128,3.976,2.455,6.089,3.752
		c2.101,1.316,4.288,2.648,6.429,4.13c2.157,1.453,4.35,2.929,6.542,4.404c2.143,1.546,4.285,3.092,6.394,4.612
		c2.131,1.49,4.124,3.098,6.089,4.602c1.943,1.533,3.884,2.933,5.61,4.406c1.747,1.445,3.398,2.812,4.923,4.073
		c0.761,0.633,1.488,1.239,2.181,1.816c0.676,0.598,1.316,1.164,1.918,1.697c1.203,1.064,2.252,1.993,3.116,2.758
		c1.727,1.528,2.714,2.401,2.714,2.401s-1.018-0.838-2.798-2.305c-0.891-0.732-1.971-1.622-3.21-2.643
		c-0.62-0.511-1.279-1.054-1.975-1.626c-0.712-0.551-1.46-1.131-2.241-1.736c-1.565-1.204-3.262-2.508-5.056-3.888
		c-1.772-1.407-3.759-2.735-5.749-4.193c-2.012-1.43-4.052-2.958-6.228-4.367c-2.151-1.438-4.338-2.9-6.524-4.362
		c-2.232-1.391-4.464-2.78-6.661-4.148c-2.178-1.396-4.4-2.643-6.533-3.876c-2.143-1.212-4.174-2.461-6.171-3.506
		c-1.987-1.061-3.866-2.063-5.6-2.988c-0.867-0.461-1.699-0.903-2.489-1.323c-0.809-0.398-1.576-0.775-2.296-1.13
		c-1.441-0.709-2.698-1.327-3.733-1.837c-2.069-1.018-3.252-1.6-3.252-1.6L389.442,404.122z"/>
</g>
<g>
	<path d="M155.708,373.679c0,0,3.49-0.451,8.725-1.128c1.309-0.169,2.727-0.353,4.226-0.546c0.75-0.098,1.52-0.197,2.307-0.299
		c0.799-0.055,1.615-0.11,2.445-0.167c3.313-0.223,6.847-0.459,10.381-0.696c3.527-0.03,7.055-0.062,10.362-0.091
		c1.652-0.022,3.248-0.024,4.76,0.021c1.512,0.029,2.942,0.058,4.262,0.083c5.278,0.104,8.797,0.172,8.797,0.172
		s-3.517,0.119-8.792,0.297c-1.318,0.045-2.747,0.093-4.258,0.144c-1.512,0.035-3.103,0.122-4.746,0.232
		c-3.285,0.204-6.789,0.422-10.292,0.639c-3.471,0.419-6.942,0.838-10.197,1.231c-0.812,0.099-1.61,0.195-2.391,0.29
		c-0.781,0.144-1.544,0.284-2.288,0.421c-1.487,0.273-2.894,0.532-4.192,0.771c-5.192,0.955-8.653,1.591-8.653,1.591
		L155.708,373.679z"/>
</g>
<path stroke="#000000" stroke-miterlimit="10" d="M370.833,283.577c0,0,3.184,3.759,1.816,8.269l-2.924,99.095
	c0,0-4.47-14.54-19.09-31.396C350.636,359.546,364.68,308.328,370.833,283.577z"/>
<path fill-rule="evenodd" clip-rule="evenodd" d="M349.25,362.298c0,0,36.5,46.232,10.02,65.486
	c-34.253,24.905-114.954-33.745-118.62-38.078C240.649,389.706,367.847,432.28,349.25,362.298z"/>
<g>
	<path d="M497.619,441.428c0,0-2.254,2.668-6.479,7.67c-4.47,4.778-10.902,12.017-20.39,19.833
		c-4.702,3.947-10.106,8.094-16.229,12.285c-1.494,1.105-3.135,2.051-4.756,3.101c-1.637,1.024-3.305,2.069-5.004,3.133
		c-1.75,0.979-3.53,1.977-5.342,2.991c-0.906,0.508-1.82,1.02-2.742,1.536c-0.926,0.51-1.894,0.955-2.851,1.442
		c-1.925,0.957-3.88,1.929-5.864,2.916c-2.01,0.934-4.086,1.805-6.176,2.731c-1.047,0.458-2.102,0.92-3.164,1.384
		c-1.082,0.415-2.172,0.832-3.27,1.252c-2.202,0.82-4.412,1.724-6.695,2.509c-9.127,3.177-18.99,5.751-29.425,7.728
		c-20.87,3.907-44.261,4.654-68.415,0.771c-24.117-3.845-49.022-12.383-71.904-26.323c-2.817-1.804-5.646-3.614-8.486-5.433
		c-2.766-1.928-5.504-3.921-8.272-5.893c-2.699-2.063-5.342-4.221-8.029-6.34l-0.502-0.4c-0.122-0.101-0.083-0.056-0.336-0.277
		l-0.236-0.207l-0.943-0.831l-1.889-1.662c-1.26-1.11-2.522-2.222-3.786-3.334c-0.635-0.537-1.26-1.143-1.884-1.758l-1.877-1.827
		c-1.252-1.221-2.505-2.442-3.761-3.667c-2.458-2.481-4.751-5.074-7.143-7.619c-2.32-2.603-4.489-5.349-6.748-8.028
		c-2.16-2.759-4.226-5.603-6.348-8.41c-16.393-22.909-28.037-49.727-33.728-77.776c-2.813-14.03-4.14-28.353-3.996-42.602
		c0.136-14.252,1.858-28.419,4.922-42.156c6.07-27.521,18.159-53.092,33.914-74.683c0.99-1.348,1.978-2.692,2.963-4.034
		c0.986-1.341,2.082-2.593,3.114-3.889c1.047-1.284,2.092-2.565,3.134-3.844l0.782-0.958c0.051-0.066,0.246-0.292,0.26-0.302
		l0.202-0.225l0.403-0.45l1.612-1.797c1.073-1.197,2.144-2.391,3.211-3.582c1.099-1.188,2.287-2.362,3.423-3.538
		c1.155-1.165,2.293-2.349,3.456-3.485c1.183-1.101,2.363-2.2,3.54-3.295c9.443-8.729,19.496-16.366,29.85-22.867
		c10.352-6.509,21.018-11.86,31.678-16.119c10.668-4.249,21.316-7.438,31.691-9.717c20.769-4.63,40.398-5.277,57.513-4.093
		c8.569,0.654,16.528,1.806,23.813,3.204c7.258,1.536,13.874,3.154,19.728,5.021c1.465,0.457,2.891,0.901,4.277,1.333
		c1.377,0.457,2.697,0.956,3.985,1.409c1.284,0.465,2.527,0.916,3.73,1.351c1.2,0.442,2.331,0.945,3.435,1.388
		c2.192,0.93,4.258,1.693,6.079,2.565c1.829,0.846,3.491,1.614,4.98,2.302c1.499,0.662,2.771,1.359,3.885,1.924
		c1.11,0.572,2.044,1.053,2.797,1.441c1.503,0.774,2.279,1.174,2.279,1.174s-0.797-0.357-2.341-1.05
		c-0.771-0.346-1.729-0.775-2.867-1.286c-1.141-0.503-2.443-1.128-3.975-1.708c-6.031-2.516-15.048-5.831-26.807-8.93
		c-5.869-1.586-12.478-2.889-19.688-4.082c-7.241-1.024-15.094-1.923-23.522-2.236c-8.425-0.264-17.398-0.06-26.786,0.857
		c-9.385,0.909-19.195,2.476-29.208,5.006c-10.014,2.507-20.242,5.9-30.434,10.307c-10.186,4.405-20.389,9.731-30.217,16.224
		c-9.837,6.469-19.342,14.012-28.227,22.577c-1.107,1.074-2.217,2.151-3.33,3.23c-1.079,1.101-2.116,2.23-3.181,3.347
		c-1.062,1.127-2.136,2.206-3.196,3.379c-1.053,1.204-2.108,2.412-3.166,3.622l-1.589,1.817l-0.397,0.455l-0.199,0.228
		c-0.122,0.138-0.058,0.066-0.131,0.159l-0.737,0.928c-0.983,1.238-1.968,2.479-2.955,3.722c-0.973,1.255-2.01,2.464-2.937,3.761
		s-1.855,2.597-2.786,3.899c-7.414,10.436-13.917,21.771-19.245,33.798c-0.656,1.508-1.373,2.992-1.984,4.523
		c-0.596,1.538-1.193,3.077-1.792,4.619c-0.577,1.55-1.247,3.066-1.75,4.647c-0.523,1.573-1.046,3.148-1.57,4.726
		c-1.13,3.128-1.967,6.355-2.889,9.564c-0.987,3.192-1.612,6.486-2.404,9.744c-2.864,13.098-4.45,26.598-4.521,40.168
		c-0.084,13.569,1.254,27.192,3.963,40.533c5.304,26.708,16.273,52.278,31.794,74.162c7.752,10.915,16.612,21.046,26.077,29.967
		c1.25,1.129,2.498,2.256,3.744,3.381l1.867,1.688l0.933,0.842l0.233,0.21c-0.098-0.081,0.109,0.089,0.149,0.121l0.476,0.388
		c2.544,2.055,5.044,4.152,7.6,6.158c2.624,1.915,5.218,3.855,7.839,5.734c2.695,1.773,5.379,3.54,8.052,5.3
		c21.757,13.528,45.4,22.298,68.569,26.479c11.586,2.118,23.051,3.083,34.15,3.205c11.1,0.104,21.859-0.636,32.052-2.282
		c10.198-1.61,19.857-3.894,28.877-6.656c2.256-0.685,4.443-1.487,6.625-2.209c1.088-0.371,2.169-0.739,3.242-1.104
		c1.054-0.416,2.101-0.83,3.141-1.24c2.076-0.831,4.142-1.607,6.144-2.45c1.979-0.896,3.93-1.777,5.85-2.646
		c0.955-0.442,1.922-0.845,2.848-1.312c0.923-0.473,1.838-0.942,2.745-1.407c1.816-0.931,3.602-1.846,5.355-2.745
		c1.709-0.982,3.388-1.946,5.034-2.894c1.639-0.961,3.3-1.82,4.816-2.842c6.211-3.858,11.73-7.713,16.556-11.41
		c2.373-1.896,4.669-3.64,6.747-5.379c2.047-1.778,3.967-3.444,5.753-4.994c0.446-0.39,0.884-0.771,1.313-1.146
		c0.41-0.394,0.813-0.78,1.207-1.158c0.788-0.757,1.545-1.483,2.268-2.178c1.447-1.394,2.76-2.66,3.936-3.795
		C495.225,443.971,497.619,441.428,497.619,441.428z"/>
</g>
</svg>
